<?xml version="1.0" encoding="iso-8859-1"?>
<!-- Generator: Adobe Illustrator 20.0.0, SVG Export Plug-In . SVG Version: 6.00 Build 0)  -->
<svg version="1.1" id="Layer_1_1_" xmlns="http://www.w3.org/2000/svg" xmlns:xlink="http://www.w3.org/1999/xlink" x="0px" y="0px"
	 viewBox="0 0 64 64" style="enable-background:new 0 0 64 64;" xml:space="preserve">
<path d="M22,20H8c-0.552,0-1,0.447-1,1v36c0,0.553,0.448,1,1,1h14c0.552,0,1-0.447,1-1V21C23,20.447,22.552,20,22,20z M21,22v4H9v-4
	H21z M9,44v-4h12v4H9z M21,46v4H9v-4H21z M9,38v-4h12v4H9z M9,32v-4h12v4H9z M9,56v-4h12v4H9z"/>
<path d="M57,2H23c-2.757,0-5,2.243-5,5v5h-7c-0.552,0-1,0.447-1,1v3H8c-2.757,0-5,2.243-5,5v36c0,2.757,2.243,5,5,5h14
	c2.757,0,5-2.243,5-5V35h30c2.757,0,5-2.243,5-5V7C62,4.243,59.757,2,57,2z M25,57c0,1.654-1.346,3-3,3H8c-1.654,0-3-1.346-3-3V21
	c0-1.654,1.346-3,3-3h3c0.552,0,1-0.447,1-1v-3h6v3c0,0.553,0.448,1,1,1h3c1.654,0,3,1.346,3,3v13V57z M60,30c0,1.654-1.346,3-3,3
	H27V21c0-2.757-2.243-5-5-5h-2v-3V7c0-1.654,1.346-3,3-3h34c1.654,0,3,1.346,3,3V30z"/>
<path d="M35,11c0-1.654-1.346-3-3-3s-3,1.346-3,3v6c0,1.654,1.346,3,3,3s3-1.346,3-3V11z M33,17c0,0.552-0.449,1-1,1s-1-0.448-1-1
	v-6c0-0.552,0.449-1,1-1s1,0.448,1,1V17z"/>
<path d="M48,8c-1.654,0-3,1.346-3,3v6c0,1.654,1.346,3,3,3s3-1.346,3-3v-6C51,9.346,49.654,8,48,8z M49,17c0,0.552-0.449,1-1,1
	s-1-0.448-1-1v-6c0-0.552,0.449-1,1-1s1,0.448,1,1V17z"/>
<path d="M40,21c-2.757,0-5,2.243-5,5v4c0,0.553,0.448,1,1,1h8c0.552,0,1-0.447,1-1v-4C45,23.243,42.757,21,40,21z M43,29h-6v-3
	c0-1.654,1.346-3,3-3s3,1.346,3,3V29z"/>
<path d="M59,58V45c0-2.206-1.794-4-4-4s-4,1.794-4,4v13c0,1.103-0.897,2-2,2h-8c-1.103,0-2-0.897-2-2h2c2.757,0,5-2.243,5-5v-7
	c0-0.553-0.448-1-1-1h-1v-8h-2v8h-8v-8h-2v8h-1c-0.552,0-1,0.447-1,1v7c0,2.757,2.243,5,5,5h2c0,2.206,1.794,4,4,4h8
	c2.206,0,4-1.794,4-4V45c0-1.103,0.897-2,2-2s2,0.897,2,2v13c0,2.206,1.794,4,4,4h1v-2h-1C59.897,60,59,59.103,59,58z M35,56
	c-1.654,0-3-1.346-3-3v-6h12v6c0,1.654-1.346,3-3,3H35z"/>
<rect x="10" y="23" width="2" height="2"/>
<rect x="14" y="23" width="2" height="2"/>
<rect x="18" y="23" width="2" height="2"/>
</svg>
